LG_Walk_Normal12																		
version=1																		
nRows=110																		
nColumns=19																		
inDegrees=yes																		
endheader																		
time	ground_force2_vx	ground_force2_vy	ground_force2_vz	ground_force2_px	ground_force2_py	ground_force2_pz	ground_torque2_x	ground_torque2_y	ground_torque2_z	ground_force1_vx	ground_force1_vy	ground_force1_vz	ground_force1_px	ground_force1_py	ground_force1_pz	ground_torque1_x	ground_torque1_y	ground_torque1_z
5.365	0	0	0	0.2	0	-0.3	0	0	0	6.53388	182.061462	30.726837	-0.067247	0	0.309038	-2.00E-06	0.753507	-1.00E-06
5.366	0	0	0	0.2	0	-0.3	0	0	0	7.478915	189.964203	31.666403	-0.066456	0	0.308523	-2.00E-06	0.705941	-1.00E-06
5.367	0	0	0	0.2	0	-0.3	0	0	0	7.478915	196.835922	31.666403	-0.06772	0	0.30559	-4.00E-06	0.878079	-1.00E-06
5.368	0	0	0	0.2	0	-0.3	0	0	0	6.941173	201.661377	31.666403	-0.068282	0	0.302042	-4.00E-06	0.896916	-1.00E-06
5.369	0	0	0	0.2	0	-0.3	0	0	0	6.941173	209.064224	31.822901	-0.068887	0	0.302042	-5.00E-06	0.896916	-1.00E-06
5.37	0	0	0	0.2	0	-0.3	0	0	0	7.411166	218.844635	32.99794	-0.068887	0	0.301421	-4.00E-06	0.829271	0
5.371	0	0	0	0.2	0	-0.3	0	0	0	7.725457	221.938568	32.99794	-0.067832	0	0.301421	-4.00E-06	0.698961	0
5.372	0	0	0	0.2	0	-0.3	0	0	0	7.411166	228.133743	32.527031	-0.067489	0	0.29857	-3.00E-06	0.698961	0.00E+00
5.373	0	0	0	0.2	0	-0.3	0	0	0	7.725457	234.141785	32.526951	-0.067832	0	0.297948	-3.00E-06	0.700333	0
5.374	0	0	0	0.2	0	-0.3	0	0	0	8.045518	239.139648	32.526951	-0.068747	0	0.29642	-5.00E-06	0.700333	0
5.375	0	0	0	0.2	0	-0.3	0	0	0	8.045518	250.654312	32.369766	-0.068747	0	0.295985	-5.00E-06	0.691281	-2.00E-06
5.376	0	0	0	0.2	0	-0.3	0	0	0	7.422712	255.45929	32.291031	-0.069403	0	0.295985	-4.00E-06	0.636944	-2.00E-06
5.377	0	0	0	0.2	0	-0.3	0	0	0	7.422712	258.204163	32.213028	-0.069403	0	0.294473	-2.00E-06	0.691281	-2.00E-06
5.378	0	0	0	0.2	0	-0.3	0	0	0	7.741332	264.924652	31.82081	-0.069815	0	0.293561	-2.00E-06	0.732205	-2.00E-06
5.379	0	0	0	0.2	0	-0.3	0	0	0	8.289895	270.760254	31.585417	-0.069815	0	0.293561	-2.00E-06	0.732205	-2.00E-06
5.38	0	0	0	0.2	0	-0.3	0	0	0	8.446321	275.052246	31.585213	-0.070085	0	0.293862	-9.00E-06	0.656652	-2.00E-06
5.381	0	0	0	0.2	0	-0.3	0	0	0	9.229881	280.205902	31.585213	-0.069627	0	0.293862	-9.00E-06	0.612133	-1.00E-06
5.382	0	0	0	0.2	0	-0.3	0	0	0	9.229881	281.569458	30.879917	-0.069413	0	0.293782	-3.00E-06	0.612133	-1.00E-06
5.383	0	0	0	0.2	0	-0.3	0	0	0	9.229881	282.601685	30.879917	-0.069413	0	0.292268	0	0.747163	-1.00E-06
5.384	0	0	0	0.2	0	-0.3	0	0	0	9.705646	291.2099	31.114666	-0.071212	0	0.292268	0.00E+00	0.747163	-1.00E-06
5.385	0	0	0	0.2	0	-0.3	0	0	0	9.859903	293.941589	31.506401	-0.071212	0	0.293133	-1.00E-06	0.656032	0
5.386	0	0	0	0.2	0	-0.3	0	0	0	10.409189	294.281769	31.506401	-0.070337	0	0.293133	-9.00E-06	0.656032	0
5.387	0	0	0	0.2	0	-0.3	0	0	0	10.412798	296.52948	31.506401	-0.070108	0	0.29136	-1.00E-05	0.63299	0.00E+00
5.388	0	0	0	0.2	0	-0.3	0	0	0	10.882068	296.696899	31.58453	-0.070108	0	0.291338	-9.00E-06	0.767574	1.00E-06
5.389	0	0	0	0.2	0	-0.3	0	0	0	11.194195	299.113831	32.054836	-0.070516	0	0.291338	-7.00E-06	0.705302	-2.00E-06
5.39	0	0	0	0.2	0	-0.3	0	0	0	11.977033	301.859802	32.211575	-0.070516	0	0.291766	-7.00E-06	0.767574	-2.00E-06
5.391	0	0	0	0.2	0	-0.3	0	0	0	11.977754	301.859802	32.603432	-0.070203	0	0.291766	-7.00E-06	0.705302	-2.00E-06
5.392	0	0	0	0.2	0	-0.3	0	0	0	11.977754	301.859802	33.38694	-0.070203	0	0.290304	-8.00E-06	0.781683	-1.00E-06
5.393	0	0	0	0.2	0	-0.3	0	0	0	12.68274	303.766876	33.70034	-0.070237	0	0.289571	-8.00E-06	0.70425	-1.00E-06
5.394	0	0	0	0.2	0	-0.3	0	0	0	13.696969	305.997894	34.719078	-0.070634	0	0.289894	-8.00E-06	0.658586	-2.00E-06
5.395	0	0	0	0.2	0	-0.3	0	0	0	13.776984	306.689484	35.032482	-0.070527	0	0.289894	-4.00E-06	0.658586	-2.00E-06
5.396	0	0	0	0.2	0	-0.3	0	0	0	14.401236	307.718231	35.188862	-0.070527	0	0.289894	-4.00E-06	0.583752	-2.00E-06
5.397	0	0	0	0.2	0	-0.3	0	0	0	14.404842	307.718231	35.580833	-0.070209	0	0.289552	1.00E-06	0.636617	-1.00E-06
5.398	0	0	0	0.2	0	-0.3	0	0	0	14.953408	307.718231	36.756035	-0.070209	0	0.289037	1.00E-06	0.568368	-2.00E-06
5.399	0	0	0	0.2	0	-0.3	0	0	0	14.953408	311.68811	37.461212	-0.070978	0	0.289037	-2.00E-06	0.568368	-1.00E-06
5.4	0	0	0	0.2	0	-0.3	0	0	0	15.889785	312.715698	37.696083	-0.071312	0	0.289037	-8.00E-06	0.568368	0
5.401	0	0	0	0.2	0	-0.3	0	0	0	17.067652	313.739807	38.009525	-0.071312	0	0.288284	-8.00E-06	0.560288	0.00E+00
5.402	0	0	0	0.2	0	-0.3	0	0	0	17.378332	312.884277	38.479706	-0.071312	0	0.287428	-8.00E-06	0.560288	-1.00E-06
5.403	0	0	0	0.2	0	-0.3	0	0	0	18.084044	315.138062	38.871361	-0.072239	0	0.287389	-6.00E-06	0.560288	-1.00E-06
5.404	0	0	0	0.2	0	-0.3	0	0	0	18.399054	318.592255	39.419876	-0.072322	0	0.287428	-6.00E-06	0.611684	0
5.405	0	0	0	0.2	0	-0.3	0	0	0	19.728292	319.417725	39.420158	-0.072322	0	0.287294	-6.00E-06	0.611684	0
5.406	0	0	0	0.2	0	-0.3	0	0	0	20.432558	320.142914	40.04644	-0.072365	0	0.287294	0.00E+00	0.50174	-1.00E-06
5.407	0	0	0	0.2	0	-0.3	0	0	0	20.668276	320.142914	40.203384	-0.072365	0	0.285673	-7.00E-06	0.447246	-1.00E-06
5.408	0	0	0	0.2	0	-0.3	0	0	0	22.234676	325.113739	40.595039	-0.072365	0	0.28493	-2.00E-06	0.50174	-1.00E-06
5.409	0	0	0	0.2	0	-0.3	0	0	0	22.311806	325.289642	40.595039	-0.072458	0	0.285162	-9.00E-06	0.44579	-1.00E-06
5.41	0	0	0	0.2	0	-0.3	0	0	0	22.858929	329.754395	40.438133	-0.072458	0	0.285162	-4.00E-06	0.487562	-2.00E-06
5.411	0	0	0	0.2	0	-0.3	0	0	0	23.956779	330.112366	40.438133	-0.072458	0	0.285162	-4.00E-06	0.487562	-2.00E-06
5.412	0	0	0	0.2	0	-0.3	0	0	0	24.505342	330.452972	40.516544	-0.072402	0	0.284021	-3.00E-06	0.487562	-2.00E-06
5.413	0	0	0	0.2	0	-0.3	0	0	0	24.896763	330.452972	40.908115	-0.072402	0	0.283527	-3.00E-06	0.526424	-2.00E-06
5.414	0	0	0	0.2	0	-0.3	0	0	0	26.5439	334.419769	40.986332	-0.073413	0	0.284021	-3.00E-06	0.525656	-2.00E-06
5.415	0	0	0	0.2	0	-0.3	0	0	0	27.55957	339.054993	40.986332	-0.073413	0	0.282978	-4.00E-06	0.553994	-2.00E-06
5.416	0	0	0	0.2	0	-0.3	0	0	0	27.955318	339.921387	40.28067	-0.073325	0	0.28252	-4.00E-06	0.525656	-2.00E-06
5.417	0	0	0	0.2	0	-0.3	0	0	0	28.498833	339.921387	40.202583	-0.073237	0	0.282203	-4.00E-06	0.433174	-1.00E-06
5.418	0	0	0	0.2	0	-0.3	0	0	0	29.126692	340.610687	40.28067	-0.073325	0	0.281177	-3.00E-06	0.433174	-1.00E-06
5.419	0	0	0	0.2	0	-0.3	0	0	0	30.462425	343.031494	40.202583	-0.073811	0	0.281177	-2.00E-06	0.590394	-1.00E-06
5.42	0	0	0	0.2	0	-0.3	0	0	0	31.710205	345.944092	40.12389	-0.073811	0	0.281619	-1.00E-06	0.590394	-1.00E-06
5.421	0	0	0	0.2	0	-0.3	0	0	0	32.887352	348.02478	40.12389	-0.07422	0	0.281619	-1.00E-06	0.532999	-2.00E-06
5.422	0	0	0	0.2	0	-0.3	0	0	0	32.968807	348.02478	40.12389	-0.07422	0	0.281441	-1.00E-06	0.532999	-2.00E-06
5.423	0	0	0	0.2	0	-0.3	0	0	0	34.298771	349.72113	40.045319	-0.074674	0	0.280063	-7.00E-06	0.532999	-2.00E-06
5.424	0	0	0	0.2	0	-0.3	0	0	0	34.376621	350.941956	39.966946	-0.074674	0	0.280063	-7.00E-06	0.575313	-2.00E-06
5.425	0	0	0	0.2	0	-0.3	0	0	0	36.961578	354.715149	39.418392	-0.074424	0	0.279837	-7.00E-06	0.59592	-1.00E-06
5.426	0	0	0	0.2	0	-0.3	0	0	0	37.510864	354.715149	39.340061	-0.074424	0	0.279743	-1.00E-05	0.59592	-1.00E-06
5.427	0	0	0	0.2	0	-0.3	0	0	0	38.918674	354.715149	39.418392	-0.074455	0	0.278351	-1.00E-05	0.574144	0
5.428	0	0	0	0.2	0	-0.3	0	0	0	38.922283	358.69046	39.57481	-0.075214	0	0.278234	-5.00E-06	0.574144	0.00E+00
5.429	0	0	0	0.2	0	-0.3	0	0	0	40.961559	364.029297	39.731472	-0.076265	0	0.277779	-4.00E-06	0.796864	0
5.43	0	0	0	0.2	0	-0.3	0	0	0	42.91938	369.366516	39.809685	-0.076612	0	0.277779	-1.00E-06	0.813246	0
5.431	0	0	0	0.2	0	-0.3	0	0	0	44.800793	372.448151	39.887894	-0.076612	0	0.277256	-1.00E-06	0.796864	0.00E+00
5.432	0	0	0	0.2	0	-0.3	0	0	0	45.894314	374.186646	40.749813	-0.076612	0	0.276208	0.00E+00	0.683142	0.00E+00
5.433	0	0	0	0.2	0	-0.3	0	0	0	46.522175	375.571411	41.924969	-0.077054	0	0.274625	-5.00E-06	0.680613	0
5.434	0	0	0	0.2	0	-0.3	0	0	0	48.482159	381.611481	42.865093	-0.077953	0	0.274625	-4.00E-06	0.680613	1.00E-06
5.435	0	0	0	0.2	0	-0.3	0	0	0	49.418533	385.89267	43.648846	-0.077953	0	0.274253	-5.00E-06	0.706068	1.00E-06
5.436	0	0	0	0.2	0	-0.3	0	0	0	49.970707	386.232819	44.118828	-0.077792	0	0.274253	-4.00E-06	0.706068	-1.00E-06
5.437	0	0	0	0.2	0	-0.3	0	0	0	51.455647	388.164978	44.667385	-0.077792	0	0.27211	-4.00E-06	0.649758	-2.00E-06
5.438	0	0	0	0.2	0	-0.3	0	0	0	52.242092	392.636353	45.842701	-0.077932	0	0.271385	-2.00E-06	0.643071	-2.00E-06
5.439	0	0	0	0.2	0	-0.3	0	0	0	52.791378	394.36322	47.017982	-0.078193	0	0.271385	-2.00E-06	0.643071	-2.00E-06
5.44	0	0	0	0.2	0	-0.3	0	0	0	53.181355	394.445465	48.271511	-0.078949	0	0.271324	-2.00E-06	0.547647	-2.00E-06
5.441	0	0	0	0.2	0	-0.3	0	0	0	53.181355	400.898193	49.760235	-0.078949	0	0.269739	-3.00E-06	0.494746	-3.00E-06
5.442	0	0	0	0.2	0	-0.3	0	0	0	52.714973	403.310577	50.62199	-0.078843	0	0.269434	-3.00E-06	0.432055	-2.00E-06
5.443	0	0	0	0.2	0	-0.3	0	0	0	52.714973	406.070068	51.797394	-0.078843	0	0.26967	-1.10E-05	0.494746	-2.00E-06
5.444	0	0	0	0.2	0	-0.3	0	0	0	53.733528	412.614655	51.954014	-0.079339	0	0.26967	-3.00E-06	0.464082	-1.00E-06
5.445	0	0	0	0.2	0	-0.3	0	0	0	53.733528	414.003662	52.110714	-0.079393	0	0.26967	-8.00E-06	0.464082	-1.00E-06
5.446	0	0	0	0.2	0	-0.3	0	0	0	53.733528	414.003662	52.8941	-0.079393	0	0.268972	-5.00E-06	0.219849	-1.00E-06
5.447	0	0	0	0.2	0	-0.3	0	0	0	54.047096	414.003662	52.8941	-0.078957	0	0.268268	-5.00E-06	0.219849	-1.00E-06
5.448	0	0	0	0.2	0	-0.3	0	0	0	54.126392	415.904175	52.424076	-0.078957	0	0.267088	-1.00E-06	0.25973	-2.00E-06
5.449	0	0	0	0.2	0	-0.3	0	0	0	54.126392	422.969879	52.110394	-0.079453	0	0.267088	0.00E+00	0.25973	-2.00E-06
5.45	0	0	0	0.2	0	-0.3	0	0	0	54.441402	426.219238	51.875401	-0.079453	0	0.267088	-1.00E-06	0.220614	-2.00E-06
5.451	0	0	0	0.2	0	-0.3	0	0	0	54.441402	427.254578	51.405014	-0.079453	0	0.2665	-3.00E-06	0.210091	-2.00E-06
5.452	0	0	0	0.2	0	-0.3	0	0	0	54.12711	429.505676	51.405014	-0.079413	0	0.265915	-8.00E-06	0.154283	-2.00E-06
5.453	0	0	0	0.2	0	-0.3	0	0	0	54.12711	433.099091	51.561436	-0.080143	0	0.265345	-3.00E-06	0.154283	-2.00E-06
5.454	0	0	0	0.2	0	-0.3	0	0	0	54.679287	434.846405	51.639725	-0.080364	0	0.265294	-1.10E-05	0.154283	-1.00E-06
5.455	0	0	0	0.2	0	-0.3	0	0	0	54.99213	440.866089	51.639725	-0.080364	0	0.264533	-8.00E-06	-0.009436	-1.00E-06
5.456	0	0	0	0.2	0	-0.3	0	0	0	54.99213	442.764618	51.404575	-0.080383	0	0.264009	-9.00E-06	-0.009436	-2.00E-06
5.457	0	0	0	0.2	0	-0.3	0	0	0	54.99213	443.614014	51.404575	-0.080343	0	0.263935	-8.00E-06	0.036042	-3.00E-06
5.458	0	0	0	0.2	0	-0.3	0	0	0	55.231457	446.721039	51.482662	-0.080383	0	0.263848	-5.00E-06	0.153433	-2.00E-06
5.459	0	0	0	0.2	0	-0.3	0	0	0	55.547916	451.18811	51.639282	-0.080465	0	0.263838	-5.00E-06	0.153433	-3.00E-06
5.46	0	0	0	0.2	0	-0.3	0	0	0	55.702171	454.2901	51.639282	-0.080821	0	0.263838	-2.00E-06	0.153433	-4.00E-06
5.461	0	0	0	0.2	0	-0.3	0	0	0	55.865089	458.592102	52.030735	-0.080821	0	0.263444	0.00E+00	0.114408	-4.00E-06
5.462	0	0	0	0.2	0	-0.3	0	0	0	55.865089	459.465027	52.187599	-0.080913	0	0.26261	0	0.114408	-1.00E-06
5.463	0	0	0	0.2	0	-0.3	0	0	0	55.865089	462.384949	52.187115	-0.080918	0	0.261931	0.00E+00	0.131428	-1.00E-06
5.464	0	0	0	0.2	0	-0.3	0	0	0	56.337971	472.20636	52.422508	-0.081367	0	0.26261	-3.00E-06	0.131428	-1.00E-06
5.465	0	0	0	0.2	0	-0.3	0	0	0	56.655144	473.050659	52.657097	-0.081367	0	0.261972	-7.00E-06	0.0922	-2.00E-06
5.466	0	0	0	0.2	0	-0.3	0	0	0	57.039349	473.392456	52.657097	-0.081367	0	0.261972	-9.00E-06	0.007165	-2.00E-06
5.467	0	0	0	0.2	0	-0.3	0	0	0	56.655144	476.337891	52.421661	-0.081435	0	0.260842	-9.00E-06	0.028795	-2.00E-06
5.468	0	0	0	0.2	0	-0.3	0	0	0	57.045841	479.950256	52.421661	-0.081484	0	0.260038	-9.00E-06	0.028795	-2.00E-06
5.469	0	0	0	0.2	0	-0.3	0	0	0	57.052334	485.122406	52.734867	-0.081727	0	0.260038	-5.00E-06	0.028795	-2.00E-06
5.47	0	0	0	0.2	0	-0.3	0	0	0	57.29166	492.505188	52.734867	-0.081727	0	0.260038	-4.00E-06	0.096413	-3.00E-06
5.471	0	0	0	0.2	0	-0.3	0	0	0	57.29166	492.845337	52.264038	-0.082069	0	0.259579	-4.00E-06	0.007197	-3.00E-06
5.472	0	0	0	0.2	0	-0.3	0	0	0	57.29166	495.961731	52.185463	-0.082069	0	0.258785	-4.00E-06	-0.061236	-3.00E-06
5.473	0	0	0	0.2	0	-0.3	0	0	0	57.60667	501.289734	52.185463	-0.082175	0	0.258619	-7.00E-06	-0.061236	-1.00E-06
5.474	0	0	0	0.2	0	-0.3	0	0	0	57.60667	504.910187	52.028641	-0.082175	0	0.258619	-9.00E-06	-0.048534	-1.00E-06
